<?xml version="1.0" standalone="no"?>
<!DOCTYPE svg PUBLIC "-//W3C//DTD SVG 20010904//EN"
 "http://www.w3.org/TR/2001/REC-SVG-20010904/DTD/svg10.dtd">
<svg version="1.0" xmlns="http://www.w3.org/2000/svg"
 width="2000.000000pt" height="2000.000000pt" viewBox="0 0 2000.000000 2000.000000"
 preserveAspectRatio="xMidYMid meet">
<metadata>
Created by potrace 1.14, written by Peter Selinger 2001-2017
</metadata>
<g transform="translate(0.000000,2000.000000) scale(0.100000,-0.100000)"
fill="#000000" stroke="none">
<path d="M11718 13118 c-75 -91 -147 -194 -207 -297 -35 -60 -42 -80 -38 -107
6 -38 -6 -44 -34 -18 -16 14 -20 13 -46 -17 -56 -64 -69 -77 -128 -124 -33
-27 -82 -71 -108 -97 -26 -27 -89 -79 -140 -117 -117 -86 -148 -119 -307 -327
-121 -156 -181 -255 -233 -385 -13 -33 -23 -39 -81 -59 -56 -18 -81 -36 -172
-118 -78 -72 -114 -112 -134 -153 -41 -79 -73 -114 -135 -144 -46 -23 -59 -36
-88 -88 -32 -60 -60 -88 -73 -75 -3 4 3 20 15 37 35 49 71 134 71 169 l0 32
-50 -4 c-28 -2 -67 0 -87 5 -20 4 -40 6 -44 4 -9 -6 17 -103 36 -131 19 -29
19 -34 1 -34 -21 0 -44 42 -62 114 -10 41 -22 67 -33 71 -19 6 -80 61 -101 91
-15 20 -15 20 -57 2 l-42 -18 51 -78 c29 -42 73 -105 99 -138 25 -34 49 -73
53 -87 4 -16 17 -29 37 -36 17 -6 29 -16 27 -22 -4 -12 -9 -12 -63 2 -36 10
-103 8 -218 -7 -21 -2 -59 2 -85 9 -26 8 -63 13 -82 10 -84 -10 -137 -3 -125
17 3 5 26 10 50 10 61 0 66 17 8 26 -62 10 -131 8 -183 -6 -46 -12 -49 -19
-19 -46 41 -37 80 -105 108 -188 15 -46 34 -92 42 -103 26 -38 134 -156 232
-254 80 -81 104 -99 128 -99 36 0 99 -25 99 -39 0 -6 -4 -12 -10 -12 -5 -1
-14 -3 -20 -4 -5 -1 -14 -3 -20 -4 -13 -1 -38 -53 -33 -68 3 -7 17 -10 37 -6
26 4 39 0 55 -16 29 -29 17 -47 -16 -26 -20 14 -31 15 -49 6 -13 -6 -24 -16
-24 -23 0 -18 45 -65 70 -73 11 -3 20 -13 20 -21 0 -11 -6 -13 -22 -8 -30 9
-78 43 -78 55 0 5 -17 7 -40 3 -49 -8 -90 2 -90 21 0 12 8 14 40 9 50 -8 80
13 72 51 -6 33 -11 35 -56 25 -22 -5 -49 -5 -61 0 -27 10 -45 57 -34 88 13 34
27 26 31 -15 l3 -38 53 1 c39 1 57 6 67 20 20 27 18 44 -6 44 -11 0 -30 5 -42
12 -21 11 -171 159 -252 249 -40 44 -41 45 -105 44 -58 -1 -66 -4 -78 -26 -21
-40 -8 -89 53 -189 112 -185 143 -225 243 -313 37 -33 61 -47 82 -47 35 0 50
-19 21 -27 -30 -8 -26 -27 11 -58 l32 -27 14 28 c13 24 12 31 -2 61 -13 28
-14 33 -1 33 8 0 25 -17 39 -37 32 -52 56 -71 96 -78 41 -7 47 -12 33 -26 -15
-15 -81 0 -104 25 -17 18 -21 19 -29 6 -14 -21 -12 -51 5 -100 8 -23 15 -56
15 -72 0 -56 14 -68 80 -68 33 0 60 4 60 8 0 5 -16 16 -35 25 -43 20 -75 70
-75 115 0 39 23 40 28 1 5 -42 25 -70 64 -90 20 -10 42 -28 48 -39 16 -30 70
-24 70 7 0 13 -8 27 -17 30 -29 11 -93 83 -93 104 0 27 15 24 36 -8 22 -34 40
-49 81 -67 27 -12 31 -18 27 -44 -6 -36 0 -38 111 -42 180 -6 160 -10 159 32
-1 20 -10 55 -21 77 -12 24 -17 44 -11 47 19 12 48 -31 60 -89 17 -81 34 -91
141 -84 124 8 128 12 120 103 -4 42 -1 53 23 82 43 51 63 37 24 -17 -15 -22
-19 -42 -17 -88 l2 -61 84 4 c47 2 89 8 94 13 5 5 8 60 7 123 -1 120 -3 145
-16 248 -8 72 -9 115 -3 205 3 51 2 60 -13 60 -30 0 -31 13 -5 45 16 19 28 48
32 78 3 26 12 83 20 127 32 187 9 359 -57 432 -20 21 -20 21 1 32 15 9 21 21
21 48 0 29 7 43 36 70 21 18 35 36 32 39 -3 3 -26 0 -51 -6 -38 -10 -47 -18
-62 -51 -10 -21 -24 -44 -32 -50 -18 -15 -17 -39 2 -39 28 0 15 -26 -17 -35
-55 -17 -67 -46 -73 -181 -5 -102 -3 -123 10 -134 22 -18 20 -43 -4 -35 -15 4
-21 -2 -30 -27 -7 -18 -23 -50 -36 -70 -26 -38 -24 -48 9 -42 54 8 66 15 72
42 10 47 14 53 25 46 27 -16 -13 -114 -48 -114 -20 0 -16 -17 9 -34 29 -20 84
-21 92 -1 3 8 10 15 16 15 14 0 13 -33 -2 -48 -6 -6 -11 -25 -10 -42 0 -16 -3
-30 -7 -30 -16 0 -31 28 -25 44 5 13 0 16 -26 16 -25 0 -41 9 -68 37 -48 51
-67 52 -91 4 -21 -40 -76 -101 -91 -101 -24 0 -17 23 15 51 42 37 52 54 60
100 3 18 15 42 26 52 28 26 56 94 64 154 4 26 8 58 10 71 2 12 5 61 6 109 1
47 8 105 15 129 10 34 10 54 -1 106 -19 94 -15 171 12 200 27 29 40 63 47 123
6 53 13 68 27 60 22 -14 9 -93 -28 -166 -35 -71 -39 -94 -29 -169 2 -19 5 -53
6 -75 l1 -40 34 39 c19 21 38 55 41 75 9 48 13 54 30 40 27 -23 102 18 176 95
37 39 68 74 68 79 0 4 -14 7 -30 7 -23 0 -33 -6 -42 -24 -12 -27 -38 -43 -38
-23 1 7 9 30 20 52 11 25 15 41 8 44 -15 5 -53 -37 -101 -110 -42 -64 -68 -84
-126 -95 -47 -10 -38 12 17 38 37 19 57 40 95 96 37 56 63 82 117 118 83 55
151 122 190 188 23 40 26 54 19 75 -11 28 -14 114 -5 130 10 16 -16 18 -53 5
-20 -7 -49 -13 -65 -14 -21 0 -40 -13 -72 -47 -24 -27 -44 -51 -44 -55 0 -5
-7 -8 -15 -8 -24 0 -18 23 15 58 17 19 30 44 30 58 0 14 3 23 8 21 14 -9 128
15 178 37 51 24 96 61 126 106 12 19 19 22 28 14 15 -15 -30 -82 -76 -113 -28
-19 -31 -27 -33 -78 -2 -57 14 -123 29 -123 5 0 31 30 58 68 27 37 67 81 90
97 79 58 181 231 277 465 49 121 51 131 32 125 -12 -4 -33 -9 -47 -12 -14 -3
-42 -19 -62 -35 -24 -19 -39 -25 -43 -17 -13 19 46 67 104 85 31 10 65 22 76
28 11 6 41 11 66 11 26 0 54 6 62 13 8 7 34 46 57 86 24 41 54 80 71 90 27 16
59 62 59 86 0 22 -29 8 -73 -35 -26 -25 -51 -45 -57 -45 -15 0 -12 26 5 40 8
7 15 21 15 31 0 21 87 192 130 254 34 49 36 55 16 55 -8 0 -34 -24 -58 -52z
m-180 -433 c15 -33 15 -35 -3 -35 -16 0 -36 39 -28 53 8 14 20 7 31 -18z
m-294 -434 c-18 -21 -44 -28 -44 -13 0 5 10 18 21 31 28 30 49 13 23 -18z
m-114 -28 c0 -5 -4 -14 -9 -22 -11 -17 -32 -5 -24 14 5 15 33 21 33 8z m60
-67 c0 -18 -26 -39 -39 -31 -7 4 -6 12 2 25 14 23 37 27 37 6z m-586 -417 c-3
-5 -10 -7 -15 -3 -5 3 -7 10 -3 15 3 5 10 7 15 3 5 -3 7 -10 3 -15z m-24 -58
c0 -18 -35 -71 -47 -71 -14 0 -10 29 9 59 13 21 38 29 38 12z m-820 -771 c10
-19 12 -19 34 -4 27 17 45 4 21 -16 -11 -9 -15 -30 -14 -75 2 -86 10 -97 47
-62 34 32 42 34 42 7 0 -11 -5 -20 -10 -20 -6 0 -15 -10 -21 -23 -18 -39 15
-134 54 -157 21 -13 35 -32 42 -57 13 -48 48 -63 101 -44 40 15 55 8 32 -15
-20 -21 -90 -29 -117 -14 -12 6 -31 31 -41 56 -26 60 -44 65 -80 23 -23 -27
-28 -40 -24 -64 8 -40 11 -41 32 -22 22 20 42 22 42 5 -1 -16 -44 -48 -73 -54
-12 -2 -23 -7 -25 -11 -29 -74 -43 -84 -129 -99 -24 -4 -33 -1 -33 9 0 9 20
18 54 26 65 14 84 41 31 41 -24 0 -35 5 -35 15 0 10 10 15 29 15 17 0 33 5 36
10 4 6 10 8 15 5 4 -3 14 2 21 11 10 12 10 22 0 50 -12 32 -11 36 18 65 39 38
43 78 15 129 -7 14 -23 47 -35 73 -17 38 -28 49 -51 54 -39 8 -35 39 5 35 32
-4 34 6 7 58 -22 42 -26 70 -10 70 5 0 14 -9 20 -20z m179 -96 c-6 -7 -15 -11
-21 -8 -5 3 -4 12 3 20 6 7 15 11 21 8 5 -3 4 -12 -3 -20z m341 -55 c0 -22
-29 -33 -36 -15 -3 8 0 24 6 37 10 17 14 19 21 8 5 -8 9 -21 9 -30z m217 -211
c-3 -8 -6 -5 -6 6 -1 11 2 17 5 13 3 -3 4 -12 1 -19z m-1027 -67 c0 -25 -24
-33 -47 -16 -16 13 -16 16 -3 25 25 16 50 12 50 -9z m444 -109 c3 -5 -8 -19
-25 -31 -37 -27 -37 -64 -1 -69 32 -5 65 26 58 54 -11 41 23 41 37 0 2 -5 22
-10 45 -12 30 -1 45 3 51 15 7 12 13 13 21 5 9 -9 7 -17 -8 -32 -15 -15 -30
-19 -62 -17 -31 3 -50 -3 -77 -21 -63 -42 -123 -25 -123 35 0 44 66 101 84 73z
m288 -59 c-2 -15 4 -22 22 -27 13 -3 31 -9 40 -12 13 -5 16 1 16 25 0 21 5 31
15 31 10 0 15 -10 15 -34 0 -47 -19 -60 -67 -47 -21 6 -57 11 -81 11 -31 0
-42 4 -39 13 2 6 9 13 15 13 7 1 17 2 22 3 6 0 10 13 10 27 0 19 4 25 18 22
11 -2 16 -11 14 -25z m278 3 c0 -8 -4 -17 -9 -21 -12 -7 -24 12 -16 25 9 15
25 12 25 -4z m-60 -107 c-35 -36 -41 -48 -38 -78 4 -47 32 -54 64 -14 16 20
26 25 34 17 8 -8 3 -20 -20 -44 -26 -28 -34 -31 -65 -26 -46 9 -55 -12 -27
-63 14 -25 18 -41 11 -51 -8 -13 -10 -13 -19 0 -5 8 -10 20 -10 26 0 20 -20
21 -150 13 -149 -10 -166 -13 -162 -29 1 -6 -5 -10 -14 -8 -11 2 -19 15 -21
33 -2 17 -10 47 -18 67 -8 21 -17 52 -20 70 -4 18 -12 43 -20 55 -12 18 -12
22 -1 26 20 8 46 -25 46 -55 0 -15 10 -52 22 -82 l21 -57 101 6 c146 9 164 13
182 41 13 19 15 37 10 80 -5 47 -4 55 8 51 9 -4 33 12 61 40 32 33 49 43 56
36 8 -8 -1 -23 -31 -54z m-727 -8 c6 -24 68 -37 96 -19 28 17 38 2 15 -23 -35
-39 -144 -4 -144 47 0 21 27 17 33 -5z m827 5 c0 -16 -24 -39 -32 -30 -3 3 -4
14 -1 25 6 22 33 26 33 5z m-820 -117 c0 -19 10 -40 30 -60 l29 -31 -29 -29
c-15 -16 -31 -29 -34 -29 -3 0 -5 17 -4 38 0 20 -5 56 -12 79 -13 44 -8 79 10
68 5 -3 10 -19 10 -36z m760 -128 c0 -21 -13 -41 -26 -41 -17 0 -17 5 -4 31
11 20 30 26 30 10z m-436 -41 c5 0 2 -7 -5 -16 -11 -14 -27 -16 -94 -11 -76 5
-81 4 -107 -20 -25 -24 -32 -26 -64 -17 -42 11 -42 30 0 26 20 -2 35 5 52 23
24 26 21 26 218 15z"/>
<path d="M11767 13073 c-40 -70 -78 -145 -74 -149 15 -15 117 111 117 145 0
12 -36 15 -43 4z"/>
<path d="M9557 11959 c-88 -10 -180 -50 -243 -105 -24 -22 -74 -92 -74 -105 0
-14 38 -10 109 11 60 18 70 24 96 66 38 60 92 86 205 100 25 3 54 7 65 9 11 2
24 4 30 4 5 1 4 6 -2 12 -13 13 -107 17 -186 8z"/>
<path d="M9690 11898 c-71 -15 -86 -18 -120 -24 -44 -7 -84 -26 -85 -39 0 -5
17 -19 38 -30 45 -24 46 -41 10 -105 l-27 -48 18 -79 c17 -68 24 -84 65 -124
84 -84 178 -132 202 -103 6 7 8 21 5 31 -15 37 -17 87 -5 109 7 13 35 32 68
45 31 12 62 28 70 34 18 17 7 63 -24 99 -14 16 -25 39 -25 50 0 51 -24 100
-69 145 -49 48 -62 52 -121 39z"/>
<path d="M9444 11769 c-18 -20 -129 -59 -170 -59 -34 0 -38 -20 -20 -83 21
-73 41 -90 88 -75 53 16 101 3 137 -37 17 -19 33 -35 35 -35 3 0 -2 21 -10 48
-24 80 -29 149 -10 177 22 33 20 50 -8 68 -22 15 -25 15 -42 -4z"/>
<path d="M8963 11705 c-182 -60 -217 -83 -348 -225 -28 -30 -80 -82 -116 -115
-97 -89 -184 -198 -210 -263 -12 -31 -31 -70 -42 -86 -11 -15 -20 -42 -21 -60
-1 -20 -6 -31 -16 -31 -23 0 -24 -32 -1 -64 12 -16 21 -32 21 -36 0 -19 68
-106 90 -114 23 -9 87 -21 150 -27 14 -1 29 -2 33 -3 5 -1 5 -10 2 -21 -5 -17
1 -24 37 -39 24 -11 59 -22 78 -25 19 -3 49 -9 65 -14 46 -13 93 -4 173 35 60
29 72 39 67 54 -8 24 5 24 52 -1 63 -32 159 -37 134 -7 -8 11 -41 111 -47 145
-6 35 -61 126 -98 163 -51 51 -91 69 -171 76 -113 10 -171 -26 -169 -103 1
-49 -21 -62 -32 -19 -7 29 -11 30 -33 11 -16 -14 -103 -48 -153 -60 -21 -5
-28 -3 -28 9 0 9 14 17 38 21 69 11 133 54 160 107 27 51 24 71 -7 43 -14 -12
-21 -14 -26 -6 -4 7 8 27 27 48 40 42 51 62 106 182 22 47 49 95 61 107 27 28
27 41 -1 45 -34 5 -35 28 0 28 29 0 54 20 66 54 4 12 12 16 24 11 40 -16 130
-18 160 -3 27 14 31 14 46 -3 19 -23 54 -25 62 -4 14 36 -36 95 -81 95 -8 0
-15 7 -15 15 0 10 7 14 23 11 12 -3 30 -5 40 -5 10 -1 30 -21 45 -46 25 -42
41 -52 49 -29 2 6 -8 26 -22 45 -14 19 -28 42 -31 52 -4 11 -17 17 -36 17 -19
0 -28 4 -25 13 7 21 70 15 82 -9 12 -24 61 -84 69 -84 11 0 6 31 -9 61 -16 30
-89 90 -109 88 -6 0 -57 -16 -113 -34z m-340 -326 c-30 -31 -51 -14 -22 17 16
17 26 21 33 14 7 -7 4 -17 -11 -31z m-93 -79 c-6 -10 -15 -22 -20 -25 -15 -9
-109 -150 -120 -180 -10 -27 -30 -34 -30 -10 0 8 6 27 12 42 15 33 114 173
136 190 20 17 34 6 22 -17z m74 -49 c3 -5 -1 -14 -8 -20 -16 -13 -32 2 -21 19
8 12 22 13 29 1z m-74 -107 c0 -13 -42 -74 -51 -74 -14 0 -11 28 7 55 15 22
44 35 44 19z m-123 -341 c29 -15 35 -15 83 1 59 19 76 13 42 -14 -36 -30 -94
-35 -139 -11 -58 30 -77 47 -69 60 6 9 13 8 29 -4 12 -8 36 -23 54 -32z m335
-68 c44 -8 69 -1 107 31 27 23 51 19 36 -6 -14 -22 30 -23 67 -1 37 21 58 21
58 0 0 -5 -5 -9 -12 -9 -6 0 -20 -8 -30 -17 -13 -12 -40 -18 -81 -20 -118 -6
-165 -14 -183 -34 -17 -19 -54 -26 -54 -10 0 5 12 17 27 26 l26 18 -24 18
c-13 10 -33 19 -45 19 -11 0 -29 6 -39 14 -18 13 -18 14 2 20 12 4 24 14 27
23 5 13 14 8 44 -25 25 -27 49 -42 74 -47z"/>
<path d="M10879 11674 c-21 -42 -131 -154 -151 -154 -9 0 -11 -54 -2 -63 14
-14 66 17 83 52 11 20 31 47 46 61 34 32 56 75 60 117 5 46 -8 41 -36 -13z"/>
<path d="M9343 11523 c-31 -12 0 -111 42 -139 26 -17 98 -15 116 3 13 13 -15
75 -49 110 -28 28 -77 40 -109 26z"/>
<path d="M9880 11497 c-54 -28 -59 -45 -28 -90 20 -29 27 -33 51 -26 60 16 71
47 39 107 l-18 33 -44 -24z"/>
<path d="M9534 11425 c9 -13 16 -31 16 -39 0 -25 46 -71 102 -101 73 -40 169
-40 267 1 44 18 61 38 54 65 -4 14 -10 18 -22 12 -9 -4 -38 -8 -65 -9 -26 -1
-51 -6 -55 -11 -16 -24 -55 -41 -84 -36 -27 4 -79 33 -97 53 -11 12 -120 90
-126 90 -3 0 1 -11 10 -25z"/>
<path d="M9927 11258 c-21 -7 -26 -14 -21 -27 4 -9 6 -24 6 -33 0 -10 2 -18 6
-18 15 0 102 66 102 78 0 15 -53 15 -93 0z"/>
<path d="M9473 11148 c2 -35 8 -73 12 -85 9 -27 -11 -32 -29 -7 -11 14 -17 12
-54 -12 -29 -19 -39 -31 -32 -39 12 -15 80 -18 114 -5 14 5 49 10 76 11 31 2
50 7 50 14 0 14 -42 79 -75 115 -12 14 -28 35 -34 48 -22 41 -33 25 -28 -40z"/>
<path d="M8883 10596 c-49 -25 -103 -47 -119 -50 -16 -2 -31 -5 -33 -5 -3 -1
0 -6 5 -11 12 -12 122 -15 177 -5 32 6 40 14 57 53 11 25 17 49 12 54 -4 4
-49 -12 -99 -36z"/>
<path d="M19 10074 c0 -13 -1 -41 -1 -61 l-1 -38 3874 -1 c2131 0 3879 1 3886
4 7 2 11 24 10 60 l-2 57 -3882 1 -3883 1 -1 -23z"/>
<path d="M12215 10036 l0 -61 3875 -1 c2131 0 3880 3 3885 7 6 4 10 31 9 61
l-1 53 -3884 1 -3885 1 1 -61z"/>
<path d="M19 9830 c-3 -64 -2 -91 3 -95 4 -4 6607 -8 7695 -5 l72 0 -1 60 -2
60 -3883 0 c-3876 0 -3883 0 -3884 -20z"/>
<path d="M12211 9790 l-1 -60 77 0 c1084 -3 7687 1 7691 4 4 5 5 49 3 99 -1
16 -193 17 -3885 17 l-3883 0 -2 -60z"/>
<path d="M355 9352 c5 -5 96 -17 220 -28 33 -2 71 -7 85 -9 14 -2 61 -7 105
-11 44 -3 82 -8 85 -9 3 -2 43 -6 90 -10 47 -4 92 -8 100 -10 8 -1 47 -6 86
-10 l71 -7 7 32 c14 71 52 65 -423 65 -236 0 -428 -1 -426 -3z"/>
<path d="M1279 9335 c-4 -11 -15 -65 -25 -120 -9 -55 -18 -109 -20 -120 -2
-11 -7 -34 -10 -52 l-6 -31 78 -1 c42 0 79 -3 82 -6 5 -5 -4 -67 -38 -250 -10
-55 -21 -118 -24 -140 -28 -188 -41 -229 -71 -243 -14 -7 -64 -12 -110 -12
-80 0 -85 -1 -90 -22 -13 -57 -48 -266 -49 -292 l-1 -30 180 2 c221 2 261 9
328 55 25 17 39 19 105 13 42 -4 86 -9 97 -11 11 -2 52 -7 91 -10 39 -3 80 -7
90 -9 36 -7 179 -19 229 -20 47 -1 50 1 67 34 9 19 17 38 18 43 0 4 -142 7
-316 7 l-315 0 25 33 c14 18 37 59 51 91 20 44 29 56 43 52 9 -3 46 -8 82 -11
36 -3 81 -7 100 -10 19 -2 60 -7 90 -10 30 -3 71 -8 90 -10 19 -3 63 -7 98
-11 35 -3 72 -7 82 -9 13 -3 23 8 38 43 l21 47 -310 3 c-171 1 -308 6 -305 10
2 4 7 25 10 47 13 86 19 110 28 116 4 3 36 2 71 -2 89 -11 176 -20 222 -24 67
-6 159 -16 185 -20 14 -3 52 -7 85 -10 l60 -6 21 45 c13 28 16 46 10 48 -6 2
-156 3 -334 3 l-323 -1 6 35 c4 20 8 41 9 46 2 6 6 31 10 57 7 40 11 46 30 43
11 -2 50 -6 86 -9 36 -4 106 -11 155 -16 50 -6 115 -13 145 -15 30 -3 64 -8
75 -10 11 -2 56 -7 100 -10 44 -4 83 -9 88 -12 6 -3 47 77 47 93 0 2 -162 4
-361 4 -198 0 -358 4 -355 8 3 5 8 24 11 43 3 19 10 58 16 87 l11 53 36 -5
c46 -7 98 -13 182 -22 36 -3 72 -7 80 -9 8 -2 53 -6 100 -10 47 -4 93 -9 102
-10 9 -2 43 -6 75 -9 32 -4 79 -9 105 -12 l47 -5 19 43 c10 24 17 45 15 48 -2
2 -174 5 -381 6 -207 1 -378 2 -378 3 -1 0 2 18 6 39 5 20 12 60 16 87 8 65 9
67 52 61 59 -8 186 -22 282 -31 36 -3 76 -8 90 -10 14 -2 59 -7 100 -11 41 -3
82 -7 90 -9 8 -2 51 -6 96 -10 l81 -7 17 41 c9 23 16 44 16 46 0 3 -143 5
-317 5 -175 0 -358 0 -406 0 l-88 0 6 38 c3 21 8 49 10 62 14 70 17 100 9 101
-5 1 -132 2 -283 3 -265 1 -274 0 -282 -19z"/>
<path d="M9506 9351 c5 -6 20 -8 99 -16 120 -12 266 -27 375 -40 19 -3 64 -7
100 -10 36 -3 76 -7 90 -10 14 -2 57 -7 96 -10 l71 -6 7 42 c4 23 4 44 1 47
-3 4 -194 6 -425 7 -230 0 -416 -2 -414 -4z"/>
<path d="M10425 9345 c-7 -5 -20 -57 -29 -115 -10 -58 -31 -177 -47 -265 -16
-88 -32 -180 -35 -205 -3 -25 -8 -47 -9 -50 -2 -3 -6 -26 -10 -50 -3 -25 -17
-103 -30 -175 -24 -130 -29 -156 -41 -230 -3 -22 -14 -83 -24 -135 -10 -52
-17 -97 -15 -98 5 -6 396 -5 401 1 3 2 7 17 10 33 7 45 24 137 28 159 2 11 14
81 26 155 13 74 26 137 30 140 16 10 280 0 380 -15 14 -2 56 -6 93 -10 37 -3
76 -8 85 -10 9 -1 53 -6 97 -9 44 -4 91 -9 105 -11 14 -2 57 -6 97 -10 l71 -7
10 44 c5 23 8 45 6 48 -1 3 -137 5 -303 4 -165 0 -298 2 -297 5 2 3 7 24 11
46 4 22 8 47 10 55 2 8 4 26 4 39 1 23 2 23 79 17 42 -4 91 -8 107 -10 49 -6
158 -18 190 -21 62 -5 171 -17 198 -21 21 -3 27 0 27 15 0 10 3 33 6 50 l7 31
-295 0 c-162 0 -297 2 -300 6 -3 3 -2 22 3 42 4 20 6 38 4 40 -2 2 -81 5 -174
5 -149 1 -171 3 -167 17 3 8 10 48 16 88 l12 72 188 0 188 0 17 50 17 51 46
-6 c26 -3 67 -7 92 -10 173 -17 274 -28 330 -35 36 -4 68 -5 73 -1 4 4 10 26
13 49 l6 42 -271 0 c-159 0 -271 4 -271 9 0 5 13 49 30 97 16 48 27 90 24 93
-10 10 -807 6 -819 -4z"/>
<path d="M19771 9349 c-73 -15 -131 -90 -131 -169 0 -60 40 -123 96 -150 143
-70 292 76 230 224 -28 67 -118 111 -195 95z m114 -44 c72 -42 94 -140 46
-205 -29 -41 -87 -68 -134 -64 -42 4 -99 40 -117 75 -18 33 -21 88 -6 122 38
90 128 121 211 72z"/>
<path d="M19830 9201 c0 -72 -9 -91 -32 -68 -17 17 -44 15 -40 -3 8 -38 60
-48 91 -19 17 16 21 32 21 89 0 63 -2 70 -20 70 -18 0 -20 -7 -20 -69z"/>
<path d="M7065 9156 c-176 -34 -265 -125 -315 -321 -43 -169 -28 -288 45 -351
52 -46 148 -74 306 -90 35 -3 67 -8 70 -10 4 -2 4 -18 0 -36 l-7 -33 -124 0
c-130 0 -185 6 -283 29 -43 10 -60 11 -63 2 -49 -127 -99 -298 -90 -305 13
-10 118 -31 201 -39 105 -11 377 -6 435 7 30 8 85 29 121 48 54 28 74 33 105
29 22 -3 64 -8 94 -11 30 -3 73 -7 95 -10 50 -6 115 -13 185 -20 30 -3 87 -9
127 -13 l71 -8 6 36 c3 19 6 41 6 48 0 9 -67 12 -301 12 l-300 0 21 29 c11 17
32 55 46 86 24 51 28 56 52 51 15 -3 56 -8 92 -11 36 -3 81 -8 100 -10 86 -10
139 -15 185 -20 28 -3 67 -8 88 -11 41 -5 42 -4 51 59 l5 37 -271 0 -270 0 6
23 c3 12 9 48 13 81 l6 58 76 -7 c42 -4 90 -8 106 -10 55 -6 150 -16 185 -20
19 -2 65 -7 102 -10 l67 -7 8 44 c8 38 7 44 -10 48 -10 3 -135 5 -277 4 l-258
-1 -17 44 c-17 43 -70 106 -110 130 -21 12 -9 12 100 -1 22 -3 67 -8 100 -11
33 -3 74 -8 90 -10 17 -2 62 -6 100 -10 39 -3 84 -8 100 -10 17 -2 57 -7 90
-10 33 -3 72 -8 87 -11 31 -6 33 -3 43 54 l7 42 -394 0 c-294 0 -412 4 -468
14 -41 8 -97 17 -124 20 -27 3 -50 7 -53 9 -10 10 10 55 26 60 31 8 245 -1
291 -12 84 -20 94 -17 108 35 l13 46 67 -6 c37 -4 108 -11 157 -16 50 -6 115
-13 145 -16 30 -3 69 -7 85 -9 17 -2 60 -7 97 -10 l67 -6 6 28 c4 15 8 34 10
40 3 7 -3 16 -13 21 -9 5 -150 8 -313 7 l-296 -1 29 88 c17 48 33 86 36 84 4
-2 41 -7 82 -11 41 -3 89 -8 105 -10 76 -9 149 -17 178 -20 97 -10 180 -18
195 -19 12 -1 19 11 26 42 5 23 7 44 5 46 -2 3 -189 7 -414 10 -226 4 -473 8
-550 10 -79 2 -166 -2 -200 -8z"/>
<path d="M17520 9155 c-173 -34 -262 -122 -309 -308 -74 -288 -2 -409 264
-443 33 -4 69 -8 80 -10 11 -1 32 -3 48 -3 23 -1 27 -5 27 -31 0 -43 -22 -49
-170 -45 -130 4 -160 7 -247 30 -33 8 -55 9 -59 4 -12 -19 -104 -303 -99 -307
6 -7 130 -31 193 -38 77 -9 323 -10 397 -2 77 9 151 34 193 66 31 22 39 24
102 18 38 -4 79 -9 92 -11 13 -2 55 -6 93 -9 39 -4 81 -8 95 -10 14 -3 61 -7
105 -11 44 -4 82 -8 85 -10 3 -2 27 -5 54 -6 l49 -3 13 44 c8 25 14 46 14 48
0 1 -142 2 -315 2 -173 0 -315 3 -315 6 0 3 11 20 24 37 13 18 32 52 42 77 17
43 32 62 44 55 3 -1 37 -6 75 -10 39 -4 81 -8 95 -10 14 -2 54 -6 90 -9 36 -4
81 -9 100 -11 19 -2 64 -7 100 -11 36 -3 68 -8 72 -10 14 -9 36 9 41 34 3 15
9 35 12 45 7 16 -11 17 -295 17 l-302 0 6 28 c3 15 9 56 12 90 l7 64 56 -7
c94 -10 123 -13 196 -20 39 -4 77 -8 85 -10 8 -1 49 -6 90 -10 41 -3 88 -8
103 -10 15 -2 59 -6 97 -10 l70 -7 -33 49 -32 48 -318 -1 -319 -1 -9 26 c-23
63 -48 96 -104 139 l-30 23 75 -7 c41 -3 89 -7 105 -9 17 -3 59 -7 95 -10 36
-4 75 -8 87 -10 12 -2 57 -7 100 -10 43 -4 86 -9 97 -11 10 -2 51 -6 90 -9 39
-3 81 -8 92 -10 20 -4 22 0 26 41 2 25 1 47 -1 50 -3 2 -188 4 -413 4 -319 -1
-425 2 -490 14 -46 8 -101 17 -123 20 -22 3 -41 5 -42 6 -9 1 0 41 11 53 19
19 219 15 324 -6 l72 -14 12 41 c15 54 26 67 52 61 11 -2 48 -7 81 -10 33 -3
74 -8 90 -10 17 -2 59 -7 95 -10 36 -3 84 -8 108 -10 23 -3 61 -7 85 -10 23
-2 69 -7 103 -11 l60 -6 13 41 c6 23 10 45 7 49 -2 4 -150 7 -328 6 -177 0
-326 1 -329 2 -3 2 7 41 22 86 21 65 25 86 16 97 -7 8 -7 12 -2 9 6 -3 37 -9
70 -12 33 -3 74 -8 90 -10 17 -2 64 -7 105 -11 41 -3 82 -8 90 -10 8 -2 47 -7
85 -10 39 -3 81 -8 95 -10 14 -2 53 -7 87 -10 l62 -6 43 45 43 45 -485 5
c-267 3 -550 7 -630 10 -93 2 -169 -1 -210 -9z"/>
<path d="M19130 9166 c-3 -2 -27 -6 -55 -9 -88 -9 -180 -51 -231 -106 -56 -59
-116 -226 -127 -354 -10 -109 31 -196 111 -240 66 -35 122 -49 263 -63 74 -7
82 -12 74 -47 -9 -33 -28 -37 -165 -33 -133 5 -186 12 -254 32 -39 11 -51 11
-57 2 -9 -14 -99 -289 -99 -300 0 -13 67 -28 207 -46 86 -12 378 -7 437 7 156
37 253 134 301 302 48 170 35 270 -45 350 -54 54 -120 82 -235 98 -44 7 -94
14 -111 17 -27 4 -30 7 -26 33 2 17 11 31 21 34 24 6 229 1 266 -6 17 -4 45
-9 64 -12 19 -3 38 -8 43 -11 10 -6 17 11 70 173 23 73 39 135 36 139 -23 22
-469 59 -488 40z"/>
<path d="M350 9140 c25 -4 81 -11 124 -15 43 -4 86 -8 95 -10 9 -1 52 -6 96
-10 44 -4 87 -8 95 -10 8 -1 47 -6 85 -9 39 -4 81 -9 95 -11 14 -2 57 -6 95
-10 39 -3 82 -8 96 -11 23 -4 27 -1 33 27 15 76 57 69 -426 68 -238 -1 -413
-5 -388 -9z"/>
<path d="M2694 9123 c-10 -25 -81 -194 -369 -878 -51 -121 -91 -222 -90 -224
2 -1 85 -4 184 -5 l181 -1 32 87 33 88 135 0 136 0 2 -82 c2 -45 5 -84 7 -86
2 -3 88 -5 190 -6 l185 -1 -4 33 -3 34 86 -7 c47 -4 88 -8 91 -10 3 -1 41 -6
85 -10 44 -4 91 -9 105 -10 14 -1 59 -6 100 -10 41 -4 78 -9 82 -11 10 -7 18
11 24 55 l6 41 -291 0 c-270 0 -291 1 -291 18 -1 9 -3 49 -7 89 -5 67 -4 72
13 69 11 -2 51 -7 89 -11 39 -3 84 -8 100 -10 17 -2 55 -6 85 -9 157 -15 192
-19 280 -32 44 -5 45 -5 54 59 l5 37 -319 0 -318 0 0 33 c-1 17 -3 56 -6 86
l-5 53 77 -7 c42 -3 88 -8 102 -10 14 -2 57 -6 95 -10 39 -3 81 -8 95 -10 30
-4 123 -14 203 -21 31 -3 57 -2 57 1 0 3 -5 25 -11 48 l-10 42 -305 -1 -304 0
-1 25 c0 14 -3 54 -5 89 -4 57 -3 63 13 58 10 -2 50 -8 88 -11 39 -4 80 -8 93
-10 12 -2 57 -7 100 -10 42 -4 85 -9 94 -10 9 -2 48 -7 85 -10 37 -4 81 -9 96
-10 22 -3 27 0 23 13 -2 9 -7 32 -11 50 l-7 32 -292 0 -293 0 -2 58 c-2 31 -4
68 -4 82 -2 21 2 25 23 24 36 -2 182 -16 200 -19 8 -2 44 -6 80 -9 36 -4 81
-9 100 -11 19 -3 65 -7 102 -11 l66 -5 -11 43 c-5 24 -14 45 -18 48 -4 3 -127
5 -274 4 -146 0 -268 3 -270 6 -2 4 -7 42 -10 84 l-6 78 48 -6 c26 -4 71 -9
98 -11 28 -3 68 -7 90 -10 22 -2 67 -7 100 -10 33 -4 91 -10 130 -15 38 -5 71
-7 73 -5 2 2 0 23 -5 47 l-9 43 -530 3 -530 2 -10 -27z m241 -458 c0 -110 -4
-158 -12 -163 -11 -7 -132 -7 -138 0 -1 2 25 74 59 160 81 210 91 210 91 3z"/>
<path d="M3830 9142 c0 -4 9 -48 19 -97 11 -50 22 -103 25 -120 9 -50 15 -78
26 -125 5 -25 12 -57 15 -72 10 -56 16 -83 20 -98 2 -8 7 -28 9 -45 3 -16 16
-79 29 -140 23 -109 23 -111 6 -200 -10 -49 -21 -110 -24 -135 -3 -25 -9 -55
-12 -67 -3 -15 -1 -23 8 -24 8 0 88 -1 178 -1 176 -1 181 0 181 53 0 25 22 45
39 35 3 -2 42 -7 86 -11 44 -4 88 -9 97 -10 9 -2 52 -7 95 -10 43 -4 86 -9 95
-10 9 -2 48 -6 85 -10 37 -3 82 -8 98 -10 17 -3 64 -7 105 -11 41 -3 77 -7 81
-9 7 -5 28 83 21 90 -3 3 -183 5 -399 5 l-395 0 6 28 c5 27 19 128 20 147 1
14 220 7 286 -10 8 -2 49 -7 90 -10 41 -4 86 -8 100 -10 14 -2 57 -6 95 -10
39 -3 84 -8 100 -10 112 -17 125 -16 125 3 0 11 3 34 6 51 l6 31 -400 2 -401
3 49 85 48 85 43 0 c40 -1 150 -10 224 -20 17 -2 59 -6 95 -10 36 -3 79 -8 95
-10 64 -8 182 -18 224 -19 36 -1 44 2 47 18 1 11 5 30 8 42 4 13 1 23 -7 26
-6 2 -168 3 -359 2 -192 0 -348 2 -348 6 0 4 21 44 46 89 l47 82 61 -6 c34 -3
72 -8 86 -10 14 -2 52 -7 85 -10 143 -13 172 -16 200 -20 17 -2 57 -7 90 -10
33 -4 74 -8 91 -10 29 -4 32 -1 38 33 3 20 6 43 6 49 0 10 -74 13 -319 15
l-319 3 46 82 c43 79 47 82 76 78 17 -2 58 -7 91 -10 33 -3 76 -8 95 -10 162
-19 270 -29 315 -30 37 0 39 2 47 35 4 19 6 40 4 45 -2 7 -102 10 -280 9 -152
0 -276 3 -276 8 0 5 11 26 25 48 14 22 25 42 25 46 0 12 42 64 48 60 4 -2 39
-7 77 -10 76 -7 140 -14 195 -21 19 -3 62 -7 95 -10 33 -3 72 -8 88 -11 15 -3
27 -4 28 -2 0 2 3 24 6 51 l5 47 -429 0 -430 0 -88 -205 c-49 -112 -92 -202
-96 -200 -4 3 -10 33 -14 67 -4 35 -9 77 -11 93 -2 17 -6 53 -9 80 -3 28 -8
73 -11 100 -3 28 -8 53 -11 58 -6 10 -363 9 -363 -1z"/>
<path d="M5367 9143 c-3 -5 -8 -26 -11 -48 -6 -35 -38 -216 -51 -285 -2 -14
-20 -119 -39 -235 -20 -115 -38 -221 -41 -235 -22 -108 -54 -314 -50 -318 3
-4 657 -6 735 -3 9 1 17 12 18 27 3 36 9 43 34 39 12 -3 51 -7 87 -10 36 -3
77 -7 91 -10 14 -2 54 -7 90 -10 36 -4 79 -8 95 -10 17 -2 64 -7 105 -11 41
-3 78 -8 82 -10 4 -3 13 17 21 43 l14 48 -301 5 c-260 4 -301 7 -300 20 1 8 4
29 7 45 3 17 8 49 12 72 6 40 9 43 33 39 15 -3 61 -8 102 -11 41 -4 86 -8 100
-10 14 -1 54 -6 90 -10 36 -3 76 -8 90 -10 14 -2 58 -7 98 -10 41 -4 82 -8 92
-10 15 -3 22 6 33 43 7 26 13 48 12 49 -1 2 -234 3 -518 3 -285 1 -515 4 -513
8 2 4 7 28 11 52 4 25 9 52 10 60 2 8 4 18 4 21 1 3 65 5 144 5 166 -2 173 -1
180 26 5 18 11 19 59 14 29 -3 78 -8 108 -11 30 -3 71 -7 90 -10 19 -2 62 -7
95 -10 33 -3 80 -8 105 -11 25 -2 68 -7 95 -9 28 -3 66 -8 85 -10 19 -3 63 -7
98 -10 58 -5 62 -4 52 12 -6 10 -19 31 -29 48 l-17 30 -368 -1 -368 -1 6 31
c18 98 18 116 -1 117 -10 1 -81 1 -158 1 l-141 1 13 71 c7 39 12 72 13 74 0 2
8 2 18 1 9 -1 88 -1 175 0 l157 1 12 43 11 43 61 -7 c34 -4 95 -10 136 -14 41
-4 89 -8 105 -11 17 -2 59 -6 95 -10 35 -3 72 -8 83 -9 10 -2 50 -7 90 -10
l72 -7 12 44 c6 23 8 45 3 48 -4 3 -152 5 -328 4 -319 0 -320 0 -311 20 4 12
18 54 30 94 l22 73 51 -6 c28 -3 71 -8 96 -11 25 -2 65 -7 90 -9 25 -3 65 -8
90 -10 25 -3 68 -7 95 -11 28 -3 66 -7 85 -9 19 -2 62 -6 95 -9 l60 -5 39 45
39 44 -741 0 c-408 0 -743 -3 -745 -7z"/>
<path d="M8300 9143 c0 -5 -12 -73 -26 -153 -31 -181 -63 -366 -70 -405 -5
-34 -15 -90 -20 -120 -2 -11 -16 -87 -30 -170 -14 -82 -28 -157 -29 -167 -2
-9 -7 -37 -10 -62 -7 -43 -6 -46 16 -47 26 -1 268 -1 310 0 25 1 27 5 38 74 6
39 12 81 15 92 2 11 12 66 22 123 l17 102 119 0 c65 0 118 -3 118 -6 0 -6 -33
-202 -45 -274 -17 -95 -17 -110 2 -111 10 0 90 -1 178 -1 l160 0 22 123 c12
68 25 138 28 154 2 17 7 41 9 55 25 135 59 332 62 360 3 19 7 42 9 50 3 8 7
32 11 54 3 21 8 48 10 60 12 61 44 250 44 262 0 11 -34 14 -180 14 -99 0 -180
-3 -180 -6 0 -28 -63 -371 -69 -377 -5 -5 -51 -9 -102 -9 -126 0 -141 1 -136
10 3 4 8 25 11 47 6 34 30 167 42 230 2 11 7 39 10 63 l6 42 -181 0 c-100 0
-181 -3 -181 -7z"/>
<path d="M9451 9146 c2 -2 33 -7 69 -10 36 -4 81 -9 100 -12 20 -2 60 -6 90
-9 30 -3 75 -7 100 -10 72 -8 121 -13 190 -20 36 -3 76 -8 90 -10 14 -2 54 -7
90 -10 36 -3 77 -8 93 -11 15 -3 27 -2 27 3 1 4 5 27 9 51 l8 42 -435 0 c-239
0 -433 -2 -431 -4z"/>
<path d="M11799 9138 c0 -7 -2 -23 -5 -35 -3 -19 -66 -378 -78 -453 -3 -14 -7
-43 -11 -65 -3 -22 -7 -47 -10 -55 -2 -8 -6 -31 -9 -50 -3 -19 -10 -58 -15
-87 -6 -29 -13 -74 -17 -100 -3 -26 -14 -86 -23 -133 -9 -47 -17 -98 -17 -114
l1 -29 178 0 c98 0 181 3 185 7 8 8 9 14 11 52 l1 26 84 -7 c46 -3 95 -8 108
-10 20 -3 69 -8 178 -20 19 -2 78 -9 130 -14 53 -6 125 -13 160 -17 36 -3 68
-8 71 -10 11 -7 26 20 33 59 l7 37 -381 0 -380 0 5 33 c3 17 10 60 16 95 l12
64 61 -7 c33 -4 72 -8 86 -10 14 -2 57 -6 95 -10 39 -3 81 -7 95 -10 14 -2 52
-7 85 -10 169 -16 195 -18 288 -31 20 -3 37 -1 38 3 0 4 2 15 4 23 1 8 4 26 6
40 l4 25 -379 3 -379 2 6 43 c10 74 28 147 35 143 4 -2 48 -7 97 -11 50 -4 92
-8 95 -10 3 -2 39 -6 81 -9 41 -4 83 -8 94 -10 11 -2 56 -7 100 -11 44 -4 87
-8 95 -10 50 -9 180 -15 181 -8 0 4 2 26 5 48 l5 40 -379 -1 c-355 0 -380 1
-377 17 2 9 7 39 11 66 5 26 9 51 10 56 1 4 2 16 3 27 1 19 6 20 69 15 37 -4
78 -8 92 -10 14 -2 54 -6 90 -10 36 -4 81 -8 100 -11 19 -2 64 -6 100 -10 36
-3 76 -7 90 -9 14 -2 57 -6 95 -10 39 -3 82 -8 96 -11 17 -3 26 0 26 8 0 7 3
30 7 51 l7 37 -381 0 c-209 0 -380 4 -380 8 0 5 5 35 11 68 7 32 12 65 12 72
0 12 79 10 167 -4 14 -2 56 -6 95 -10 38 -3 80 -7 93 -9 13 -2 54 -7 92 -11
l69 -6 6 36 c4 20 5 42 2 48 -3 10 -63 13 -256 13 -287 -1 -260 -12 -240 102
10 57 13 62 33 58 11 -2 46 -7 76 -9 30 -3 82 -8 115 -12 33 -3 71 -7 85 -9
14 -2 57 -7 95 -10 39 -3 77 -8 85 -10 25 -7 37 8 43 53 l5 42 -449 0 c-352 0
-449 -3 -450 -12z"/>
<path d="M12766 9133 c-2 -10 -8 -38 -11 -63 -8 -48 -12 -70 -20 -110 -2 -14
-7 -41 -10 -60 -3 -19 -8 -43 -11 -52 -5 -16 5 -18 116 -18 120 0 120 0 115
-22 -5 -23 -35 -193 -40 -233 -5 -28 -54 -310 -65 -370 -5 -27 -11 -63 -14
-80 -3 -16 -8 -47 -12 -67 -7 -38 -6 -38 27 -39 120 -3 329 0 338 6 6 3 11 16
11 28 0 37 14 48 51 43 19 -3 61 -8 94 -11 63 -6 116 -12 188 -20 23 -2 71 -7
107 -10 36 -4 75 -8 87 -10 12 -2 57 -7 100 -10 43 -4 81 -9 85 -12 4 -2 10 6
12 19 3 13 7 35 11 51 l5 27 -363 0 -364 0 16 93 c14 81 18 92 36 91 29 -2
156 -14 190 -19 17 -2 57 -6 90 -9 82 -8 155 -17 185 -21 21 -3 85 -9 203 -20
15 -1 27 0 28 4 0 3 2 25 5 49 l6 42 -361 0 c-199 0 -361 3 -361 8 0 4 7 43
15 87 8 44 14 81 15 83 0 3 102 -5 165 -13 17 -2 62 -7 100 -10 39 -3 84 -8
100 -10 17 -2 55 -7 85 -10 30 -3 69 -7 85 -9 17 -2 64 -7 106 -11 l76 -7 7
42 c4 24 4 45 1 49 -3 3 -167 6 -363 6 -265 0 -356 3 -355 12 5 23 12 69 18
113 8 55 11 60 33 56 9 -2 49 -7 87 -10 76 -7 137 -14 200 -21 22 -2 67 -7
100 -10 33 -3 74 -8 90 -10 17 -2 64 -7 105 -10 41 -4 83 -9 92 -11 18 -5 25
11 31 66 l2 25 -362 3 -363 2 6 38 c3 20 8 40 11 45 2 4 56 7 119 7 112 0 114
0 114 23 0 33 13 47 40 43 14 -3 57 -7 95 -10 39 -4 81 -8 95 -11 14 -2 54 -6
90 -10 36 -3 90 -8 121 -11 l56 -6 7 32 c13 70 31 65 -237 65 l-242 0 1 25 c1
70 25 147 43 136 4 -3 54 -10 111 -16 58 -6 121 -13 140 -15 19 -2 67 -7 105
-10 39 -4 78 -9 88 -11 19 -6 23 2 31 59 l5 37 -669 0 c-628 0 -669 -1 -674
-17z"/>
<path d="M14179 9148 c-2 -8 -77 -442 -85 -494 -3 -20 -7 -46 -10 -58 -2 -11
-20 -113 -39 -226 -20 -113 -40 -225 -45 -250 -5 -25 -11 -58 -12 -74 l-3 -30
173 1 c96 0 177 5 181 9 6 7 45 212 68 359 12 74 10 76 160 -217 68 -133 78
-148 102 -149 77 -2 263 0 267 3 3 4 11 41 13 61 1 5 18 6 39 3 20 -3 64 -8
97 -11 33 -3 71 -8 85 -10 14 -2 54 -7 90 -10 36 -4 79 -8 95 -10 17 -2 66 -6
110 -10 44 -4 83 -9 86 -11 6 -3 19 54 19 84 0 9 -68 12 -305 12 l-305 0 1 23
c1 44 26 152 35 151 5 -1 45 -5 89 -8 44 -4 87 -9 95 -11 8 -2 50 -6 92 -10
43 -4 90 -8 105 -10 181 -22 215 -23 218 -5 2 8 6 30 9 48 l6 32 -311 0 c-291
0 -310 1 -306 18 3 9 11 48 17 85 l13 69 56 -6 c31 -4 76 -9 101 -11 25 -3 63
-7 85 -10 22 -2 67 -7 100 -10 33 -3 76 -8 95 -10 19 -2 65 -7 102 -10 l66 -7
9 44 c5 23 6 45 2 48 -4 3 -143 5 -309 4 l-301 -1 4 31 c14 91 21 122 28 132
6 7 30 8 71 3 95 -11 171 -19 240 -25 35 -3 73 -7 86 -9 13 -2 53 -7 90 -10
37 -4 74 -8 82 -10 24 -7 36 7 47 53 l11 42 -313 0 -312 0 9 48 c5 26 10 56
13 67 2 11 4 28 4 39 1 16 7 18 64 12 175 -19 255 -27 287 -31 19 -2 67 -7
105 -11 39 -3 89 -9 112 -14 l42 -7 9 41 c5 22 7 46 5 51 -2 6 -113 10 -306
10 -262 0 -302 2 -301 15 0 14 16 116 20 133 1 4 2 11 3 16 0 4 13 7 29 5 28
-3 100 -11 187 -20 110 -11 151 -15 175 -19 14 -2 57 -6 95 -10 39 -3 82 -8
98 -11 17 -3 27 0 27 8 1 7 3 30 6 51 l6 37 -486 0 -486 0 -5 -25 c-13 -63
-15 -74 -20 -111 -3 -21 -10 -61 -15 -89 -11 -60 -17 -93 -26 -152 -10 -68 -8
-71 -112 127 -39 74 -84 160 -100 190 l-30 55 -146 3 c-80 1 -146 1 -147 0z"/>
<path d="M15820 9143 c0 -10 -34 -211 -60 -358 -28 -155 -28 -156 -34 -195 -3
-19 -14 -84 -25 -145 -11 -60 -23 -125 -26 -142 -7 -43 -14 -83 -19 -108 -16
-83 -27 -167 -23 -172 5 -4 592 -7 719 -4 22 1 29 7 36 34 7 26 13 32 33 30
73 -5 167 -14 189 -18 24 -3 84 -11 160 -19 19 -3 69 -7 110 -11 41 -4 79 -8
84 -8 5 -1 18 19 28 46 l18 47 -278 1 c-152 1 -290 0 -305 -1 -27 -2 -29 1
-23 27 3 15 10 56 17 90 11 60 13 63 38 59 14 -3 58 -7 96 -11 97 -8 154 -14
195 -20 35 -5 62 -8 200 -21 41 -3 79 -7 84 -8 5 0 18 20 28 47 l18 47 -353 1
c-193 0 -423 0 -511 0 -87 -1 -162 1 -166 4 -7 4 0 59 15 121 4 20 10 21 152
19 82 0 154 1 161 3 6 2 12 13 12 24 0 18 5 19 73 13 39 -3 83 -8 97 -10 14
-2 54 -6 90 -10 36 -3 81 -8 100 -10 19 -2 60 -7 90 -10 80 -8 151 -16 180
-20 14 -2 58 -7 97 -10 64 -6 72 -5 67 9 -3 9 -10 16 -14 16 -4 0 -13 13 -20
29 -6 16 -19 31 -28 33 -9 2 -176 3 -371 2 l-353 -1 6 46 c4 25 9 60 11 76 l5
30 -155 -1 c-147 -1 -158 1 -157 26 0 3 3 23 6 45 12 79 10 76 94 75 43 -1
120 -1 173 -1 l96 1 13 44 c9 35 16 44 31 41 10 -2 44 -6 76 -9 32 -4 78 -9
103 -11 25 -3 68 -8 95 -11 28 -2 64 -6 80 -8 114 -13 195 -20 229 -21 37 0
39 2 51 42 9 31 10 43 1 45 -6 2 -146 3 -311 2 -165 -1 -307 0 -317 2 -15 4
-13 15 14 95 l30 90 47 -6 c89 -11 116 -14 176 -20 33 -3 101 -10 150 -15 50
-6 113 -12 140 -15 28 -3 70 -8 95 -11 43 -4 47 -2 89 41 l44 45 -747 0 c-410
0 -746 -3 -746 -7z"/>
<path d="M468 8938 c4 -3 42 -9 84 -13 42 -3 85 -7 95 -9 10 -2 54 -7 97 -11
43 -4 86 -8 95 -10 9 -1 52 -6 96 -10 91 -9 124 -12 180 -19 189 -22 178 -25
189 44 l6 35 -425 0 c-233 0 -421 -3 -417 -7z"/>
<path d="M9425 8939 c2 -3 28 -6 56 -8 29 -1 55 -4 58 -6 3 -1 44 -6 90 -10
47 -4 94 -9 105 -11 12 -2 48 -6 81 -9 58 -6 120 -12 195 -20 63 -7 139 -15
200 -21 57 -5 60 -4 61 18 1 13 2 34 3 48 l1 25 -427 0 c-234 0 -425 -3 -423
-6z"/>
<path d="M10853 8938 c-2 -5 15 -8 39 -9 24 0 51 -2 61 -4 15 -3 82 -10 182
-20 118 -11 183 -18 198 -21 10 -2 53 -6 95 -10 42 -3 84 -7 92 -9 8 -1 47 -6
87 -10 79 -8 77 -10 85 65 l3 24 -418 1 c-231 0 -421 -3 -424 -7z"/>
<path d="M391 8736 c2 -2 33 -6 69 -10 36 -3 83 -8 105 -11 22 -2 65 -7 95
-10 30 -3 96 -10 145 -15 50 -5 115 -12 145 -15 30 -3 69 -8 85 -10 17 -2 64
-7 105 -10 41 -4 85 -8 98 -10 16 -3 22 1 22 14 0 10 3 33 6 50 l7 31 -443 0
c-243 0 -441 -2 -439 -4z"/>
<path d="M5791 8736 c2 -2 36 -7 74 -11 39 -3 84 -8 100 -10 17 -2 62 -7 100
-10 39 -4 84 -8 100 -10 17 -2 57 -7 90 -10 66 -7 133 -14 180 -20 17 -2 66
-6 110 -10 44 -4 88 -9 98 -11 14 -2 17 5 17 47 l0 49 -437 0 c-240 0 -434 -2
-432 -4z"/>
<path d="M9371 8736 c2 -3 36 -7 74 -11 39 -3 81 -7 95 -10 14 -2 57 -6 95
-10 39 -3 81 -8 95 -10 14 -2 51 -7 83 -10 31 -3 83 -7 115 -10 31 -3 71 -7
87 -10 17 -2 57 -7 90 -10 33 -4 74 -8 91 -10 31 -3 32 -2 41 46 l10 49 -440
0 c-242 0 -438 -2 -436 -4z"/>
<path d="M16251 8736 c2 -2 42 -7 89 -11 46 -3 87 -8 90 -10 3 -1 39 -6 80 -9
41 -4 91 -9 110 -11 19 -2 62 -7 96 -10 33 -3 71 -7 85 -10 13 -2 56 -6 94
-10 39 -3 90 -8 115 -11 111 -14 105 -16 108 38 l2 48 -437 0 c-240 0 -434 -2
-432 -4z"/>
<path d="M388 8529 c4 -4 43 -10 87 -14 44 -4 91 -9 105 -10 14 -1 57 -6 95
-10 39 -4 81 -8 95 -10 38 -6 256 -29 381 -41 63 -6 66 -5 72 17 4 13 7 35 7
49 l0 25 -425 0 c-233 0 -421 -3 -417 -6z"/>
<path d="M9395 8529 l-40 -6 38 -3 c20 -1 40 -3 45 -4 4 -1 48 -6 97 -10 50
-4 97 -9 106 -11 9 -2 49 -6 90 -9 41 -4 81 -8 89 -11 8 -2 52 -6 97 -10 46
-3 91 -8 101 -10 10 -1 52 -6 94 -9 84 -7 79 -10 92 59 l6 30 -387 0 c-214 0
-406 -3 -428 -6z"/>
<path d="M121 8326 c5 -5 55 -12 149 -21 36 -4 76 -8 90 -10 14 -2 57 -6 95
-10 39 -3 81 -8 95 -10 14 -2 57 -6 95 -10 39 -4 84 -8 100 -10 29 -4 115 -13
182 -20 33 -4 33 -5 48 73 l4 22 -431 0 c-237 0 -429 -2 -427 -4z"/>
<path d="M9321 8326 c5 -5 55 -12 149 -21 36 -4 76 -8 90 -10 14 -2 54 -6 90
-10 36 -4 76 -8 90 -10 14 -2 57 -7 95 -10 174 -17 249 -25 283 -30 37 -4 39
-2 48 53 l7 42 -428 0 c-236 0 -426 -2 -424 -4z"/>
<path d="M10701 8326 c2 -2 36 -7 74 -10 39 -4 84 -8 100 -10 17 -3 66 -7 110
-11 44 -4 87 -8 95 -10 8 -3 47 -7 85 -10 39 -3 81 -8 95 -10 14 -2 54 -6 90
-10 112 -10 164 -16 192 -21 28 -4 30 -2 43 64 l7 32 -448 0 c-246 0 -445 -2
-443 -4z"/>
<path d="M9305 8119 l-40 -6 35 -2 c19 -1 46 -4 60 -6 14 -2 77 -8 140 -15 63
-6 129 -13 145 -15 17 -2 57 -7 90 -10 33 -3 78 -8 100 -10 22 -3 60 -7 85 -9
115 -13 166 -19 181 -21 13 -3 19 9 26 46 l10 49 -396 2 c-218 2 -414 0 -436
-3z"/>
<path d="M10720 8119 l-35 -6 43 -3 c23 -1 45 -3 50 -4 12 -3 159 -19 287 -31
44 -4 88 -9 97 -10 9 -2 48 -7 85 -10 37 -4 79 -8 93 -11 14 -2 64 -7 111 -10
l86 -6 7 32 c3 18 6 39 6 46 0 11 -71 14 -397 16 -219 2 -414 0 -433 -3z"/>
<path d="M61 8116 c2 -2 40 -7 84 -10 77 -6 126 -11 210 -21 22 -3 63 -7 90
-10 28 -3 68 -7 90 -10 22 -2 74 -7 115 -11 41 -3 84 -8 95 -10 10 -2 51 -6
90 -10 38 -3 73 -8 78 -11 8 -5 13 8 22 60 l6 37 -442 0 c-243 0 -440 -2 -438
-4z"/>
<path d="M6485 7656 c-64 -24 -101 -71 -109 -138 -2 -18 -4 -37 -5 -42 0 -4
-7 -6 -15 -3 -21 8 -24 -11 -17 -115 0 -10 8 -18 16 -18 12 0 15 -17 15 -94 0
-81 -2 -94 -18 -98 -14 -4 -17 -16 -17 -64 l0 -59 80 -5 c44 -3 110 -4 146 -2
l66 4 -1 64 c-1 35 -5 65 -11 65 -5 1 -20 2 -32 2 -20 0 -21 4 -21 93 l1 94
31 0 31 0 1 65 c0 36 -2 66 -5 66 -3 1 -16 3 -29 4 -32 3 -38 13 -20 31 11 11
33 16 72 15 l56 0 0 63 c0 61 -1 64 -27 71 -46 13 -156 14 -188 1z"/>
<path d="M19 7651 c-3 -30 -3 -129 1 -129 41 3 41 7 38 -184 -3 -167 -5 -183
-21 -182 -12 1 -17 -6 -18 -25 -2 -62 -1 -102 2 -105 7 -7 34 -8 150 -7 l116
1 1 65 c1 57 -1 65 -17 65 -24 0 -27 26 -21 163 l5 108 66 -198 66 -198 64 0
63 0 67 200 67 200 1 -137 c1 -132 0 -138 -19 -138 -18 0 -20 -7 -20 -64 l0
-65 38 -3 c20 -2 91 -2 157 0 l120 3 -2 62 c-1 34 -2 65 -2 68 -1 4 -9 6 -18
5 -17 -1 -18 14 -20 182 -1 173 -1 182 18 182 10 0 19 3 20 8 5 44 2 115 -6
122 -5 4 -88 8 -182 8 l-173 0 -35 -112 c-19 -61 -38 -118 -41 -126 -3 -8 -21
32 -40 90 -54 165 -26 148 -240 147 -101 0 -184 -3 -185 -6z"/>
<path d="M1519 7648 c0 -4 -1 -24 -1 -43 0 -74 2 -83 20 -87 15 -4 17 -21 16
-178 0 -146 -3 -174 -16 -184 -18 -13 -32 -123 -17 -132 13 -7 208 -8 215 -1
3 3 6 39 7 80 1 93 11 92 63 -8 l38 -73 61 -4 c33 -2 79 -2 103 0 l42 3 0 65
c0 35 -4 65 -10 65 -5 1 -14 2 -19 3 -11 1 -81 96 -81 109 0 16 64 77 80 77
15 0 18 10 18 64 0 40 -5 66 -12 68 -6 2 -45 3 -86 3 l-75 0 -50 -74 c-28 -40
-56 -73 -61 -72 -5 0 -10 68 -11 153 -1 84 -2 158 -2 164 -1 14 -220 16 -222
2z"/>
<path d="M6020 7588 c0 -58 3 -68 18 -68 16 0 17 -15 17 -182 -1 -167 -2 -183
-18 -182 -15 2 -17 -8 -17 -67 0 -38 3 -69 8 -70 10 -1 180 -1 220 0 l33 1 -3
65 c-2 36 -7 65 -12 64 -19 -2 -21 28 -21 264 l0 244 -112 0 -113 0 0 -69z"/>
<path d="M11649 7656 c-1 0 -2 -30 -4 -65 -2 -55 0 -64 16 -68 18 -5 19 -18
19 -189 0 -170 -1 -184 -18 -184 -15 0 -18 -10 -19 -61 -1 -38 3 -62 10 -64 7
-3 65 -6 130 -7 111 -3 117 -2 118 17 0 11 2 41 3 68 2 39 -1 47 -16 47 -16 0
-18 10 -18 83 0 88 8 107 46 107 35 0 48 -26 47 -93 -1 -93 -2 -97 -15 -95 -9
2 -14 -17 -16 -64 l-3 -67 98 -3 c54 -2 113 -2 131 0 l32 3 0 69 c0 58 -2 68
-17 66 -16 -1 -18 11 -20 109 -3 156 -30 210 -111 219 -54 6 -103 -8 -142 -40
l-30 -26 0 119 0 119 -110 1 c-60 1 -110 0 -111 -1z"/>
<path d="M7550 7570 c-76 -4 -85 -7 -85 -25 -1 -38 -16 -64 -38 -67 -20 -3
-22 -9 -22 -70 0 -57 3 -68 16 -68 14 0 17 -16 20 -112 5 -130 21 -171 79
-200 39 -20 143 -24 200 -8 l35 10 2 64 2 65 -41 -4 c-65 -7 -78 11 -78 107
l0 78 55 0 55 0 0 68 0 68 -52 -1 -53 0 -5 50 -5 50 -85 -5z"/>
<path d="M11318 7572 c-8 -1 -19 -22 -24 -45 -7 -32 -14 -43 -31 -45 -13 -2
-23 -6 -24 -10 0 -4 -2 -34 -3 -66 -2 -50 1 -60 16 -64 13 -3 18 -14 18 -41 2
-190 15 -238 75 -271 36 -20 147 -26 204 -10 l41 11 0 65 0 66 -43 -6 c-62 -9
-74 8 -75 107 l0 77 54 0 c30 0 54 3 55 8 5 41 3 105 -3 115 -4 6 -29 12 -55
12 l-48 1 0 46 0 47 -71 3 c-40 2 -78 2 -86 0z"/>
<path d="M1070 7476 l-65 -11 0 -65 c-2 -90 -3 -89 58 -73 81 21 143 17 170
-9 l22 -23 -70 -8 c-127 -14 -199 -68 -199 -151 -1 -81 45 -126 129 -126 49 0
77 10 112 42 l21 20 -2 -26 c-3 -24 0 -26 38 -27 69 -1 171 2 174 6 7 7 5 112
-2 124 -4 6 -12 9 -17 6 -11 -7 -10 -15 -13 110 -5 171 -49 215 -221 220 -38
1 -99 -3 -135 -9z m174 -282 c3 -9 -4 -25 -20 -40 -20 -21 -28 -23 -39 -14 -8
7 -15 21 -15 31 0 33 62 53 74 23z"/>
<path d="M2275 7479 c-84 -19 -138 -67 -160 -143 -31 -103 -13 -199 49 -261
49 -48 98 -65 193 -65 58 0 178 22 191 35 7 6 8 127 1 131 -3 2 -22 -1 -41 -6
-89 -25 -179 -19 -200 14 -19 29 -6 33 115 33 67 1 127 2 133 2 15 1 11 105
-5 146 -22 55 -57 91 -103 105 -50 15 -130 20 -173 9z m101 -117 c6 -4 14 -17
18 -29 7 -22 5 -23 -43 -23 -38 0 -51 4 -51 14 0 33 48 57 76 38z"/>
<path d="M3602 7474 c-111 -29 -163 -107 -158 -241 6 -148 88 -222 246 -223
168 0 254 93 244 264 -3 59 -29 118 -66 153 -56 53 -167 72 -266 47z m117
-143 c19 -12 24 -130 7 -156 -18 -28 -53 -29 -71 -2 -16 26 -17 135 -1 154 13
14 45 16 65 4z"/>
<path d="M4883 7475 c-17 -7 -41 -23 -52 -34 l-21 -21 0 28 0 27 -110 0 c-120
1 -112 5 -112 -60 0 -63 3 -75 17 -75 16 0 16 -3 18 -115 0 -60 -2 -70 -19
-75 -16 -4 -19 -14 -19 -65 l1 -60 74 -5 c41 -3 109 -3 150 0 l75 5 0 65 0 65
-37 -1 -38 0 0 50 c0 95 51 138 146 123 l34 -6 0 78 0 79 -31 6 c-40 8 -38 8
-76 -9z"/>
<path d="M5159 7474 c-69 -21 -109 -70 -109 -135 0 -27 6 -62 14 -77 17 -33
78 -68 131 -75 22 -3 48 -9 58 -12 19 -8 24 -55 5 -56 -7 0 -21 -2 -31 -4 -17
-3 -42 14 -49 35 -3 10 -114 17 -124 7 -11 -10 -10 -108 1 -117 33 -27 211
-40 282 -21 46 13 102 64 104 95 1 12 3 32 4 46 4 37 -24 98 -54 119 -14 10
-53 24 -86 31 -33 7 -68 16 -77 21 -22 12 -23 35 -2 43 27 10 43 7 63 -15 19
-20 48 -25 121 -20 6 1 10 27 10 60 l0 59 -47 12 c-72 18 -162 19 -214 4z"/>
<path d="M5680 7480 c-60 -11 -120 -51 -148 -100 -24 -40 -27 -56 -27 -135 0
-77 3 -95 23 -128 29 -46 74 -80 126 -97 46 -15 201 -8 259 11 l37 12 0 69 c0
62 -2 69 -17 64 -39 -12 -111 -22 -157 -21 -35 1 -52 6 -62 20 -29 40 -20 44
104 44 64 -1 124 0 133 0 14 1 16 11 14 54 -3 66 -11 93 -42 139 -39 58 -142
87 -243 68z m96 -118 c6 -4 13 -17 16 -29 6 -22 3 -23 -43 -23 -41 0 -49 3
-49 18 0 35 45 55 76 34z"/>
<path d="M7068 7474 c-51 -16 -107 -70 -109 -107 -5 -110 36 -162 146 -181 22
-4 48 -9 58 -12 21 -7 23 -53 2 -55 -8 -1 -21 -2 -27 -3 -20 -3 -48 13 -48 28
0 16 -40 23 -94 16 l-39 -5 -1 -49 c-1 -27 4 -55 9 -61 30 -37 265 -45 320
-12 51 32 69 64 69 128 0 46 -5 64 -26 91 -26 34 -34 38 -151 68 -50 14 -70
35 -46 51 24 15 56 10 70 -10 13 -19 39 -24 102 -22 26 1 27 3 27 60 l0 59
-47 12 c-68 18 -161 19 -215 4z"/>
<path d="M8124 7483 c-11 -2 -35 -17 -52 -33 l-32 -29 0 27 0 27 -112 0 -113
0 -1 -64 c0 -54 2 -65 18 -69 16 -4 18 -16 18 -98 0 -84 -2 -94 -18 -94 -16 0
-18 -9 -18 -65 l0 -65 73 -1 c40 0 93 0 118 0 25 0 60 0 78 0 l32 1 0 65 c0
68 1 67 -54 68 -22 0 -23 2 -19 65 4 56 8 68 33 89 25 22 36 25 87 21 l58 -4
0 77 0 77 -31 6 c-17 3 -34 5 -38 5 -3 -1 -15 -4 -27 -6z"/>
<path d="M8432 7475 c-111 -34 -157 -101 -157 -230 0 -67 4 -87 25 -125 45
-80 125 -115 245 -108 138 9 210 79 219 214 5 70 -17 150 -52 188 -57 61 -187
89 -280 61z m117 -144 c17 -11 24 -125 10 -153 -14 -26 -48 -32 -70 -12 -25
23 -28 134 -3 158 17 18 42 20 63 7z"/>
<path d="M9130 7473 c-19 -8 -45 -24 -57 -35 l-23 -21 0 25 c0 14 -6 28 -12
30 -7 2 -58 4 -113 4 l-100 -1 -2 -67 c-2 -62 -1 -68 18 -68 19 0 20 -5 17
-92 -3 -79 -5 -93 -19 -92 -14 1 -17 -10 -17 -67 l0 -69 52 -1 c99 -2 199 1
203 5 3 2 5 30 7 62 1 47 -2 58 -16 62 -13 3 -18 15 -19 46 -3 119 6 146 46
146 34 0 45 -21 46 -91 2 -92 1 -99 -16 -99 -12 0 -15 -14 -15 -65 l0 -65 65
-1 c36 0 85 0 110 0 92 0 85 -6 85 66 0 58 -2 65 -20 65 -19 0 -20 7 -20 106
0 127 -13 178 -52 206 -36 25 -103 31 -148 11z"/>
<path d="M9525 7476 c-71 -31 -106 -107 -107 -232 -1 -150 57 -234 162 -234
45 0 72 11 108 43 l22 20 0 -29 c0 -54 -20 -69 -96 -70 -38 -1 -84 3 -103 7
-20 4 -37 6 -39 4 -4 -3 -5 -48 -3 -102 1 -29 4 -32 52 -43 66 -16 191 -16
247 -1 56 16 106 67 121 124 6 25 11 120 11 211 0 156 1 166 19 166 17 0 19 8
17 67 l-1 68 -110 0 -110 0 -6 -30 c-4 -16 -7 -25 -8 -18 -2 19 -69 55 -109
58 -20 2 -51 -2 -67 -9z m173 -148 c7 -7 12 -42 12 -85 0 -70 -1 -74 -26 -83
-37 -14 -64 3 -65 43 -3 66 2 111 12 124 14 16 51 17 67 1z"/>
<path d="M10139 7474 c-99 -30 -152 -110 -151 -227 1 -115 40 -179 132 -219
37 -17 61 -19 140 -15 52 2 113 10 135 18 l40 14 3 68 c2 64 1 68 -17 62 -37
-11 -119 -22 -160 -20 -45 2 -71 19 -71 45 0 16 11 18 121 16 66 0 126 2 132
6 16 10 8 107 -12 153 -25 56 -70 92 -133 104 -62 12 -105 10 -159 -5z m129
-116 c7 -7 12 -20 12 -30 0 -15 -8 -18 -45 -18 -37 0 -45 3 -45 18 0 24 19 42
45 42 12 0 26 -5 33 -12z"/>
<path d="M10810 7479 c-14 -6 -38 -22 -53 -37 -19 -17 -28 -22 -27 -12 6 44 5
45 -110 45 l-110 1 0 -67 c0 -56 3 -68 18 -71 15 -3 17 -15 17 -91 0 -74 -3
-88 -17 -93 -17 -5 -25 -50 -18 -109 3 -27 3 -27 52 -27 24 0 89 1 145 1 l102
1 -1 65 c-1 39 -5 65 -12 66 -6 1 -23 1 -38 1 -26 1 -26 2 -24 57 4 96 37 127
125 119 l51 -5 1 51 c0 28 2 61 3 74 2 13 -1 25 -5 28 -17 10 -75 12 -99 3z"/>
<path d="M12350 7479 c-92 -17 -86 -10 -85 -91 1 -56 5 -72 15 -70 55 13 118
22 149 22 35 0 81 -22 81 -39 0 -5 -30 -11 -67 -14 -76 -8 -148 -39 -177 -79
-13 -19 -19 -43 -19 -79 0 -47 3 -55 36 -86 32 -28 44 -33 88 -33 52 0 80 10
114 41 20 18 21 18 22 -2 3 -32 1 -32 128 -30 l90 1 0 62 c-1 51 -5 64 -18 66
-18 4 -18 5 -19 127 -1 111 -27 161 -98 192 -40 17 -174 23 -240 12z m154
-296 c-8 -33 -22 -44 -49 -41 -48 7 -19 68 32 68 20 0 23 -3 17 -27z"/>
<path d="M13098 7476 c-20 -6 -48 -21 -63 -33 -14 -13 -26 -21 -26 -18 -6 21
-7 26 -8 38 -1 9 -29 13 -111 12 l-110 0 0 -67 c0 -58 3 -68 18 -68 15 0 17
-10 16 -87 -2 -110 -1 -106 -19 -99 -12 4 -15 -6 -15 -64 l0 -69 58 -3 c31 -2
90 -2 130 0 l73 4 -2 63 c-2 51 -6 64 -19 68 -15 4 -17 16 -15 87 2 86 9 100
52 100 32 0 43 -29 43 -115 0 -63 -3 -76 -14 -72 -18 7 -24 -12 -22 -78 l1
-50 130 -3 130 -3 0 66 c0 56 -2 65 -17 65 -14 0 -18 8 -18 33 -3 148 -8 206
-20 231 -31 61 -97 85 -172 62z"/>
<path d="M14382 7480 c-102 -21 -165 -88 -178 -189 -14 -116 27 -211 112 -255
31 -17 57 -21 135 -21 89 0 99 2 144 30 71 44 100 104 98 205 -2 113 -41 179
-125 214 -46 20 -131 27 -186 16z m96 -149 c16 -9 23 -115 11 -148 -11 -30
-46 -39 -70 -17 -15 13 -19 31 -19 76 0 33 5 68 10 79 11 20 45 25 68 10z"/>
<path d="M15654 7482 c-11 -1 -35 -16 -52 -32 l-32 -29 0 27 0 27 -110 0 c-60
0 -110 -2 -111 -5 0 -3 -2 -32 -3 -64 -2 -50 1 -60 16 -64 17 -4 18 -14 16
-96 -2 -50 -7 -89 -12 -86 -13 8 -23 -30 -21 -85 l1 -50 70 -5 c38 -3 105 -3
149 0 l80 5 1 63 c0 37 -4 62 -10 63 -6 1 -23 1 -38 1 -27 1 -28 3 -28 52 0
61 28 112 65 122 15 4 46 4 71 1 l44 -5 0 79 c0 56 -4 79 -12 81 -29 3 -64 4
-84 0z"/>
<path d="M16255 7480 c-79 -19 -125 -55 -155 -122 -22 -49 -26 -140 -9 -203
14 -52 81 -116 138 -134 54 -16 153 -16 218 0 82 20 83 22 83 95 0 58 -2 65
-17 60 -93 -28 -199 -28 -219 -1 -29 39 -20 43 116 41 79 0 131 3 133 9 7 18
-1 105 -12 138 -14 43 -55 86 -100 105 -40 16 -130 23 -176 12z m103 -122 c7
-7 12 -20 12 -30 0 -15 -8 -18 -45 -18 -37 0 -45 3 -45 18 0 24 19 42 45 42
12 0 26 -5 33 -12z"/>
<path d="M17315 7478 c-56 -12 -114 -56 -139 -103 -30 -58 -33 -191 -4 -249
24 -49 77 -92 132 -107 47 -13 207 -7 249 10 26 10 27 14 27 76 l0 65 -42 -7
c-73 -11 -154 -9 -172 6 -20 16 -23 140 -4 159 28 28 72 10 80 -33 3 -17 12
-20 63 -21 33 -1 65 3 71 8 12 9 12 137 0 156 -19 32 -186 58 -261 40z"/>
<path d="M18331 7468 c-68 -26 -95 -64 -95 -135 0 -84 49 -132 150 -148 56 -8
82 -28 68 -51 -5 -10 -17 -18 -25 -19 -24 -4 -59 13 -59 29 0 10 -15 15 -54
18 -82 5 -82 5 -83 -62 l0 -60 36 -11 c56 -17 213 -23 255 -9 51 17 93 55 102
93 24 110 -30 183 -149 201 -70 11 -103 46 -57 61 27 9 60 -3 60 -21 0 -9 12
-14 35 -15 19 -1 47 -1 63 -2 26 -1 27 1 29 53 3 61 -8 74 -72 86 -77 14 -152
11 -204 -8z"/>
<path d="M18848 7475 c-104 -26 -159 -104 -160 -225 -1 -170 111 -259 300
-239 37 4 85 14 107 21 39 13 40 14 43 67 5 79 4 80 -65 66 -90 -18 -152 -13
-174 14 -11 13 -17 26 -14 31 2 4 63 7 135 6 l130 -1 0 58 c0 97 -46 174 -118
198 -49 16 -130 18 -184 4z m120 -117 c7 -7 12 -20 12 -30 0 -15 -8 -18 -44
-18 -52 0 -61 9 -40 38 17 24 53 29 72 10z"/>
<path d="M19340 7479 c-110 -22 -164 -124 -116 -218 16 -31 80 -71 113 -71 10
0 35 -5 56 -11 30 -8 37 -15 37 -34 0 -14 -3 -25 -7 -26 -5 0 -15 -2 -23 -3
-24 -5 -60 12 -60 28 0 17 -117 27 -129 11 -10 -14 -6 -104 5 -114 34 -31 212
-41 291 -15 84 27 121 116 83 201 -22 49 -50 67 -125 83 -33 7 -68 16 -77 21
-24 13 -23 36 2 44 27 9 60 -3 60 -21 0 -13 14 -16 85 -16 14 0 30 0 35 1 7 1
10 24 8 58 -3 57 -3 58 -41 70 -53 18 -144 23 -197 12z"/>
<path d="M2901 7470 c-5 -3 -9 -33 -10 -67 0 -53 2 -63 17 -63 13 0 32 -40 80
-164 34 -90 62 -169 62 -175 0 -15 -33 -14 -48 1 -7 7 -35 13 -62 14 l-50 1 0
-73 c0 -86 3 -89 98 -100 74 -8 134 11 174 54 45 48 69 100 166 357 18 48 37
81 46 83 13 3 16 17 16 70 l0 67 -112 0 -113 0 -2 -67 c-1 -53 1 -68 13 -68 8
0 14 -1 14 -2 0 -2 -9 -30 -19 -62 l-18 -59 -22 58 c-18 48 -20 60 -8 66 9 6
13 27 12 71 l0 63 -113 0 c-62 1 -116 -2 -121 -5z"/>
<path d="M3989 7453 c0 -13 -1 -39 -1 -58 0 -52 1 -53 19 -57 14 -3 17 -20 18
-119 2 -128 18 -173 70 -197 58 -26 150 -8 194 39 l21 23 0 -32 0 -32 109 0
109 0 4 44 c4 54 -5 92 -20 88 -14 -3 -14 -12 -15 173 l-2 150 -112 0 c-62 1
-114 -2 -114 -5 -1 -3 -3 -33 -5 -67 -3 -61 -3 -63 22 -63 24 0 24 -1 23 -76
-1 -60 -6 -81 -20 -95 -24 -24 -34 -24 -58 0 -17 17 -19 35 -19 163 l0 143
-111 0 c-109 1 -111 0 -112 -22z"/>
<path d="M13655 7471 c-3 -2 -5 -32 -5 -67 0 -50 3 -63 18 -66 12 -3 36 -55
80 -167 34 -90 60 -167 56 -172 -8 -13 -42 -11 -46 3 -3 7 -26 13 -56 14 l-52
1 0 -77 c0 -89 -3 -86 111 -97 76 -7 136 19 179 78 38 52 53 88 122 270 36 99
58 143 70 147 15 4 18 15 18 71 l0 66 -115 0 -115 0 0 -67 c0 -47 4 -67 13
-70 12 -2 11 -12 -1 -55 -8 -29 -17 -53 -21 -53 -3 0 -15 23 -25 51 -14 42
-15 53 -4 60 13 8 21 128 9 130 -19 4 -232 4 -236 0z"/>
<path d="M14749 7460 c-6 -94 -4 -113 13 -118 10 -2 18 -9 18 -16 1 -6 2 -58
3 -116 3 -115 16 -154 63 -185 40 -26 131 -17 177 18 44 33 49 33 43 3 -4 -24
-4 -25 87 -28 145 -5 138 -8 135 70 -2 47 -7 66 -15 64 -16 -3 -15 -8 -17 173
l-1 150 -115 0 -115 0 -2 -67 c-3 -62 -1 -67 20 -70 20 -3 22 -8 23 -76 1 -40
-4 -79 -10 -88 -16 -21 -48 -24 -68 -6 -16 13 -18 35 -18 161 l0 146 -110 0
c-92 1 -110 -2 -111 -15z"/>
<path d="M16602 7470 c-6 -4 -7 -29 -3 -107 1 -13 7 -23 14 -23 7 0 35 -22 62
-50 l49 -50 -49 -45 c-28 -25 -57 -44 -65 -42 -11 1 -15 -12 -17 -65 l-2 -66
72 -4 c40 -2 90 -1 112 2 l40 5 0 63 c0 34 -3 62 -7 62 -12 0 -9 14 6 36 15
19 15 19 30 -1 18 -23 21 -39 6 -30 -6 4 -10 -20 -10 -63 0 -68 0 -70 28 -73
15 -2 72 -2 127 1 l100 5 1 63 c1 39 -3 62 -10 62 -6 0 -35 23 -65 51 l-54 50
43 44 c24 25 52 45 62 45 18 0 20 5 20 60 0 83 10 75 -107 75 l-105 0 0 -67
c0 -39 4 -68 11 -70 7 -2 4 -12 -8 -25 l-18 -22 -18 24 c-13 18 -14 25 -5 25
9 0 13 18 13 65 0 36 -2 66 -5 66 -17 5 -242 4 -248 -1z"/>
<path d="M17636 7470 c-1 -3 -2 -32 -1 -65 0 -52 3 -60 20 -63 19 -3 20 -10
18 -100 -3 -119 9 -167 50 -205 29 -27 36 -29 93 -25 48 3 70 10 97 31 44 33
46 33 42 2 l-2 -25 113 0 114 0 0 65 c0 49 -3 65 -14 65 -21 0 -22 13 -21 172
0 95 -3 149 -10 151 -5 2 -57 3 -115 3 l-105 -1 -3 -67 c-3 -63 -2 -67 20 -70
21 -3 23 -8 24 -76 1 -75 -7 -96 -41 -106 -44 -13 -50 4 -55 166 l-5 153 -108
0 c-60 0 -110 -2 -111 -5z"/>
</g>
</svg>
